<?xml version="1.0" encoding="iso-8859-1"?>
<!-- Generator: Adobe Illustrator 16.0.0, SVG Export Plug-In . SVG Version: 6.00 Build 0)  -->
<!DOCTYPE svg PUBLIC "-//W3C//DTD SVG 1.1//EN" "http://www.w3.org/Graphics/SVG/1.1/DTD/svg11.dtd">
<svg version="1.1" id="Capa_1" xmlns="http://www.w3.org/2000/svg" xmlns:xlink="http://www.w3.org/1999/xlink" x="0px" y="0px"
	 width="747.138px" height="747.139px" viewBox="0 0 747.138 747.139" style="enable-background:new 0 0 747.138 747.139;"
	 xml:space="preserve">
<g>
	<g>
		<path d="M613.684,291.34l-0.025-0.053c0.03,0.007,0.062,0.015,0.096,0.019C613.732,291.32,613.705,291.326,613.684,291.34z"/>
		<path d="M604.361,275.91c-0.003-0.001-0.005-0.001-0.006-0.001c0.001-0.016,0.006-0.032,0.006-0.047V275.91z"/>
	</g>
	<path d="M187.006,614.666v86.807c0,25.221,15.219,45.666,40.439,45.666h109.063c23.259,0,42.416-17.392,45.266-39.874
		c-0.071-0.286-0.157-0.562-0.229-0.845c0.165-1.428,0.286-2.874,0.286-4.334v-84.785c23.467-5.881,89.492-157.086,89.492-157.086
		l4.181-86.078c0.945-18.047-15.177-26.935-33.217-27.879c-6.199-0.326-15.248-0.522-23.209,5.004
		c-2.02,1.399-3.844,3.168-6.485,3.168c-0.408,0-0.752-0.175-1.146-0.233c-0.157,0.101-0.358,0.15-0.51,0.25l-0.192-0.39
		c-3.81-0.87-6.7-4.112-6.7-8.175l-0.445-310.807C403.601,15.714,387.888,0,368.509,0c-19.372,0-35.071,15.714-35.071,35.075
		l-0.286,200.507c0-19.375-15.068-23.671-34.44-23.671c-19.371,0-35.722,4.295-35.722,23.671v4.456
		c-0.945-14.711-15.95-19.075-35.015-19.075c-19.365,0-35.086,4.475-35.086,23.846l0.021,13.319
		c-3.851-13.187-17.753-18.896-34.776-16.956c-23.71,2.703-24.927,18.606-24.733,24.501v168.035
		C133.4,436.869,137.667,577.709,187.006,614.666z"/>
</g>
<g>
</g>
<g>
</g>
<g>
</g>
<g>
</g>
<g>
</g>
<g>
</g>
<g>
</g>
<g>
</g>
<g>
</g>
<g>
</g>
<g>
</g>
<g>
</g>
<g>
</g>
<g>
</g>
<g>
</g>
</svg>
